<svg xmlns="http://www.w3.org/2000/svg" xmlns:xlink="http://www.w3.org/1999/xlink" width="99.5" height="14.17" viewBox="0 0 99.5 14.17">
  <defs>
    <clipPath id="clip-path">
      <rect id="Rectángulo_57" data-name="Rectángulo 57" width="14.76" height="14.17" rx="1.21" transform="translate(57.49 1.56)" fill="none"/>
    </clipPath>
    <clipPath id="clip-path-2">
      <rect id="Rectángulo_59" data-name="Rectángulo 59" width="22" height="14.07" rx="1.19" transform="translate(0.9 1.64)" fill="none"/>
    </clipPath>
    <clipPath id="clip-path-3">
      <path id="SVGID" d="M7.26,4.36,5.8,8.21,5.18,5a.67.67,0,0,0-.66-.58H2.1v.17A6,6,0,0,1,3.48,5a.63.63,0,0,1,.34.5L5,10H6.5L8.76,4.36Z" transform="translate(0.9 1.49)" fill="#004d93"/>
    </clipPath>
    <clipPath id="clip-path-4">
      <rect id="SVGID-2" data-name="SVGID" width="22.15" height="2.03" transform="translate(0.79 1.57)" fill="#004d93"/>
    </clipPath>
    <clipPath id="clip-path-5">
      <rect id="SVGID-3" data-name="SVGID" width="22.15" height="2.03" transform="translate(0.825 13.78) rotate(-0.21)" fill="#f3a409"/>
    </clipPath>
    <clipPath id="clip-path-6">
      <path id="SVGID-4" data-name="SVGID" d="M12.66,5.91c0-.2.19-.42.6-.48a2.62,2.62,0,0,1,1.41.25l.24-1.2a3.91,3.91,0,0,0-1.33-.24c-1.4,0-2.39.77-2.39,1.87,0,.81.71,1.26,1.25,1.53s.74.45.74.7-.44.54-.85.55a2.87,2.87,0,0,1-1.47-.35l-.25,1.24a4.24,4.24,0,0,0,1.58.29c1.5,0,2.48-.77,2.48-1.94C14.67,6.65,12.65,6.57,12.66,5.91Z" transform="translate(0.9 1.49)" fill="#004d93"/>
    </clipPath>
    <clipPath id="clip-path-7">
      <path id="SVGID-5" data-name="SVGID" d="M9.37,4.36,8.21,10l1.42-.01,1.16-5.64Z" transform="translate(0.9 1.49)" fill="#004d93"/>
    </clipPath>
    <clipPath id="clip-path-8">
      <path id="SVGID-6" data-name="SVGID" d="M17.32,4.33a.66.66,0,0,0-.61.41L14.6,10h1.49l.3-.85h1.82l.18.84H19.7L18.53,4.32ZM16.79,8l.74-2.12L18,8Z" transform="translate(0.9 1.49)" fill="#004d93"/>
    </clipPath>
  </defs>
  <g id="Grupo_126" data-name="Grupo 126" transform="translate(-1762 -899)">
    <g id="Grupo_125" data-name="Grupo 125">
      <g id="Grupo_124" data-name="Grupo 124">
        <path id="Trazado_36" data-name="Trazado 36" d="M79.93,8.94c0-.38-.2-.36-.39-.36V8.47h1.22a1.53,1.53,0,0,1,1.7,1.47c0,.42-.24,1.47-1.74,1.47H79.55V11.3c.25,0,.37,0,.38-.32Zm.42,2c0,.32.23.36.44.36A1.17,1.17,0,0,0,82,10a1.27,1.27,0,0,0-1.33-1.4h-.33v2.3Z" transform="translate(1762 898.93)" fill="#fff"/>
        <path id="Trazado_37" data-name="Trazado 37" d="M82.61,11.3h.08c.12,0,.2,0,.2-.14V10c0-.18-.06-.21-.22-.29V9.65l.45-.15a.12.12,0,0,1,.08,0h0v1.62c0,.14.09.14.21.14h.07v.11h-.9V11.3Zm.44-2.47a.21.21,0,0,1-.2-.21.22.22,0,0,1,.2-.21.21.21,0,1,1,0,.42" transform="translate(1762 898.93)" fill="#fff"/>
        <path id="Trazado_38" data-name="Trazado 38" d="M83.91,10c0-.15,0-.19-.24-.27V9.68a5.53,5.53,0,0,0,.55-.21h0v.28A1.18,1.18,0,0,1,85,9.47c.36,0,.48.26.48.59v1.09c0,.14.09.14.21.14h.08v.11h-.91v-.11h.08c.12,0,.2,0,.2-.14V10.06c0-.25-.15-.36-.39-.36a1.13,1.13,0,0,0-.49.2v1.25c0,.14.1.14.21.14h.08v.11h-.9v-.11h.07c.12,0,.21,0,.21-.14V10Z" transform="translate(1762 898.93)" fill="#fff"/>
        <path id="Trazado_39" data-name="Trazado 39" d="M86.07,10.23a1.729,1.729,0,0,0,0,.24.72.72,0,0,0,.63.73.84.84,0,0,0,.57-.28l.06.06a1.06,1.06,0,0,1-.78.48.85.85,0,0,1-.81-.92c0-.83.55-1.08.85-1.08a.67.67,0,0,1,.71.66v.08h0Zm.75-.14c.11,0,.12-.05.12-.11a.35.35,0,0,0-.37-.38c-.26,0-.43.19-.48.49Z" transform="translate(1762 898.93)" fill="#fff"/>
        <path id="Trazado_40" data-name="Trazado 40" d="M87.4,11.28h.12c.11,0,.2,0,.2-.14V10c0-.13-.15-.15-.22-.19V9.7c.31-.13.48-.24.52-.24h0v.38h0c.1-.16.28-.43.54-.43a.22.22,0,0,1,.24.22.2.2,0,0,1-.2.21c-.13,0-.13-.1-.28-.1a.36.36,0,0,0-.31.36v1c0,.14.08.14.2.14h.24v.11H87.4v-.11Z" transform="translate(1762 898.93)" fill="#fff"/>
        <path id="Trazado_41" data-name="Trazado 41" d="M89,10.8a.55.55,0,0,0,.53.51c.25,0,.34-.15.34-.3,0-.5-.92-.34-.92-1a.58.58,0,0,1,.65-.54,1.17,1.17,0,0,1,.48.12v.43H90a.43.43,0,0,0-.46-.41c-.17,0-.33.1-.32.28,0,.49,1,.34,1,1,0,.28-.22.57-.73.57A1,1,0,0,1,89,11.3v-.48h.08Z" transform="translate(1762 898.93)" fill="#fff"/>
        <path id="Trazado_42" data-name="Trazado 42" d="M94,9.18h-.1a.81.81,0,0,0-.9-.69,1.21,1.21,0,0,0-1.18,1.35,1.37,1.37,0,0,0,1.26,1.46.87.87,0,0,0,.85-.74h.09L94,11.2a2.4,2.4,0,0,1-.93.23,1.5,1.5,0,0,1-1.62-1.58A1.54,1.54,0,0,1,93,8.36a3.21,3.21,0,0,1,1,.22Z" transform="translate(1762 898.93)" fill="#fff"/>
        <path id="Trazado_43" data-name="Trazado 43" d="M94.2,11.25h.08c.12,0,.21,0,.21-.14V8.76c0-.27-.07-.28-.23-.33V8.37a3.35,3.35,0,0,0,.44-.19h.09v2.97c0,.14.1.14.22.14h.07v.11H94.2v-.11Z" transform="translate(1762 898.93)" fill="#fff"/>
        <path id="Trazado_44" data-name="Trazado 44" d="M96.91,11.12c0,.08,0,.08.12.08h.17v.09a3.18,3.18,0,0,0-.61.13h0v-.35a1.11,1.11,0,0,1-.75.36.45.45,0,0,1-.46-.5V9.84c0-.11,0-.22-.25-.24V9.52h.54V10.7c0,.13,0,.49.37.49a.9.9,0,0,0,.5-.26V9.8c0-.09-.2-.13-.35-.17V9.55l.65-.06v1.63Z" transform="translate(1762 898.93)" fill="#fff"/>
        <path id="Trazado_45" data-name="Trazado 45" d="M97.75,9.73a1,1,0,0,1,.63-.31.81.81,0,0,1,.78.88,1.05,1.05,0,0,1-1,1.11,1.38,1.38,0,0,1-.59-.14l-.12.09h-.09a6.3,6.3,0,0,0,0-.75V8.75c0-.27-.07-.28-.23-.33V8.36a3.35,3.35,0,0,0,.44-.19h.09V9.73Zm0,1.14a.46.46,0,0,0,.44.43c.45,0,.64-.44.64-.82a.81.81,0,0,0-.68-.83.62.62,0,0,0-.4.2v1Z" transform="translate(1762 898.93)" fill="#fff"/>
        <path id="Trazado_46" data-name="Trazado 46" d="M80.26,13.86h0c-.08,0-.16,0-.16-.12v-1.2c0-.12.08-.12.16-.13h.05v-.07h-.72v.08h0c.08,0,.16,0,.16.12v1.2c0,.11-.07.12-.16.12h0v.07h.72v-.08Z" transform="translate(1762 898.93)" fill="#fff"/>
        <path id="Trazado_47" data-name="Trazado 47" d="M82.19,12.32h-.62v.08h.06c.07,0,.19,0,.19.2v.85l-1-1.13h-.49v.07h0a.2.2,0,0,1,.2.2v1c0,.18,0,.28-.2.28h0v.08H81v-.08h0c-.17,0-.21-.06-.21-.26v-.92L81.87,14H82a1.688,1.688,0,0,1,0-.23V12.69c0-.27.1-.28.2-.28h0v-.08Z" transform="translate(1762 898.93)" fill="#fff"/>
        <path id="Trazado_48" data-name="Trazado 48" d="M83.78,12.24h0c0,.06,0,.06-.12.06H82.47c-.06,0-.1,0-.12-.06h-.07a1.36,1.36,0,0,1,0,.2,1.249,1.249,0,0,1,0,.19h.09c0-.17,0-.19.21-.2h.36v1.22c0,.18-.06.18-.18.18H82.7v.08h.78v-.08h-.06c-.11,0-.17,0-.18-.19V12.45h.36c.15,0,.16.12.17.21h.08a1.091,1.091,0,0,1,0-.18,1.23,1.23,0,0,1,0-.19h-.07Z" transform="translate(1762 898.93)" fill="#fff"/>
        <path id="Trazado_49" data-name="Trazado 49" d="M85.16,13.53h0c-.06.26-.18.27-.45.27s-.27,0-.27-.14v-.52h.26c.15,0,.15.07.17.22h.08a2.35,2.35,0,0,1,0-.26,2.439,2.439,0,0,1,0-.27h-.09c0,.12,0,.19-.17.19h-.27v-.58h.31c.24,0,.26.11.27.26h.08v-.23a.41.41,0,0,1,0-.12H83.91v.08h0c.08,0,.16,0,.16.12v1.2c0,.12-.07.12-.16.13h0v.07h1.24a.594.594,0,0,1,.08-.36h-.07Z" transform="translate(1762 898.93)" fill="#fff"/>
        <path id="Trazado_50" data-name="Trazado 50" d="M86.91,13.84h0a.24.24,0,0,1-.21-.14l-.39-.57a.45.45,0,0,0,.31-.41c0-.34-.27-.42-.56-.42h-.73v.08h.05c.07,0,.15,0,.15.16v1.17c0,.07-.07.11-.15.11h-.06v.08h.75v-.08h0c-.11,0-.17,0-.18-.17v-.49H86a6.69,6.69,0,0,0,.47.74h.46v-.07Zm-.62-1.11c0,.27-.12.35-.35.35h-.1v-.66H86a.31.31,0,0,1,.29.31Z" transform="translate(1762 898.93)" fill="#fff"/>
        <path id="Trazado_51" data-name="Trazado 51" d="M88.83,12.38V12.3H88.2v.08h.06c.07,0,.19,0,.19.2v.85l-1-1.14H87v.08h0a.21.21,0,0,1,.2.2v1c0,.19,0,.28-.2.29h0v.07h.63v-.08h0c-.17,0-.2-.05-.21-.25v-.93L88.5,14h.11a.861.861,0,0,1,0-.23v-1c0-.28.1-.28.19-.29h0Z" transform="translate(1762 898.93)" fill="#fff"/>
        <path id="Trazado_52" data-name="Trazado 52" d="M90.42,13.82h0c-.07,0-.12,0-.14-.08l-.09-.24-.42-1.2v-.05h0l-.21.1a1.078,1.078,0,0,1-.09.29L89,13.69a.19.19,0,0,1-.19.14h0v.08h.55v-.08h0c-.07,0-.16,0-.16-.07a1.32,1.32,0,0,1,0-.18l.07-.23h.51l.08.26a.54.54,0,0,1,0,.16.341.341,0,0,1-.13.05h0v.08h.68v-.08Zm-.7-.62h-.4l.2-.62Z" transform="translate(1762 898.93)" fill="#fff"/>
        <path id="Trazado_53" data-name="Trazado 53" d="M91.76,12.21h0c0,.06-.05.06-.11.06h-1.2c-.06,0-.1,0-.12-.06h-.07v.39h.09c0-.17,0-.19.2-.2h.37v1.22c0,.18,0,.18-.18.18h0v.08h.78V13.8h-.05c-.11,0-.18,0-.18-.19V12.42h.37c.14,0,.15.12.16.21h.08v-.37h-.08Z" transform="translate(1762 898.93)" fill="#fff"/>
        <path id="Trazado_54" data-name="Trazado 54" d="M92.63,13.81h0c-.08,0-.15,0-.16-.12v-1.2c0-.11.08-.12.16-.12h0v-.08H91.9v.08h0c.09,0,.16,0,.16.12V13.7c0,.11-.08.12-.16.12h0v.07h.72v-.08Z" transform="translate(1762 898.93)" fill="#fff"/>
        <path id="Trazado_55" data-name="Trazado 55" d="M93.53,12.24a.85.85,0,0,0-.86.86.82.82,0,0,0,.88.83.85.85,0,0,0,.87-.89.82.82,0,0,0-.89-.8Zm0,1.57c-.37,0-.55-.38-.56-.79s.12-.65.51-.66.56.4.56.73-.04.72-.47.72Z" transform="translate(1762 898.93)" fill="#fff"/>
        <path id="Trazado_56" data-name="Trazado 56" d="M96.32,12.36v-.08H95.7v.08h.06c.07,0,.19,0,.19.2v.85l-1-1.13h-.49v.08h0a.2.2,0,0,1,.2.2v1c0,.18,0,.28-.2.28h0v.08h.63v-.07h0c-.17,0-.2-.06-.21-.26v-.92L96,13.92h.1a1.688,1.688,0,0,1,0-.23v-1c0-.27.09-.28.19-.28h0Z" transform="translate(1762 898.93)" fill="#fff"/>
        <path id="Trazado_57" data-name="Trazado 57" d="M97.92,13.8h0c-.07,0-.12,0-.14-.09l-.09-.23-.43-1.2a.14.14,0,0,0,0-.06h0a1,1,0,0,1-.21.1,2.461,2.461,0,0,1-.09.29l-.37,1.06a.19.19,0,0,1-.19.14h0v.08h.55v-.08h0c-.08,0-.16,0-.16-.07a.62.62,0,0,1,0-.18l.07-.23h.5l.09.26a.54.54,0,0,1,0,.16.312.312,0,0,1-.13.06h0v.08H98v-.07Zm-.7-.63h-.4l.2-.61Z" transform="translate(1762 898.93)" fill="#fff"/>
        <path id="Trazado_58" data-name="Trazado 58" d="M99.22,13.47h0a.37.37,0,0,1-.07.16.31.31,0,0,1-.21.12h-.3c-.07,0-.13,0-.13-.12V12.46c0-.11,0-.11.14-.11h.07v-.08H98v.08h0c.08,0,.16,0,.16.12v1.18c0,.14-.08.14-.16.14h0v.08h1.24a.688.688,0,0,1,.08-.39h-.08Z" transform="translate(1762 898.93)" fill="#fff"/>
        <path id="Trazado_59" data-name="Trazado 59" d="M99.26,12.2a.24.24,0,1,0,.24.24.24.24,0,0,0-.24-.24Zm0,.44a.19.19,0,1,1,.138-.059.19.19,0,0,1-.138.059Z" transform="translate(1762 898.93)" fill="#fff"/>
        <path id="Trazado_60" data-name="Trazado 60" d="M99.29,12.45a.08.08,0,0,0,0-.07.07.07,0,0,0-.08-.07h-.12v.18h.12v-.08h0a.125.125,0,0,0,.08.11h0v-.05Zm-.07,0v-.11h0v.11Z" transform="translate(1762 898.93)" fill="#fff"/>
        <path id="Trazado_61" data-name="Trazado 61" d="M84.88,4.21a3.89,3.89,0,1,1,3.9,3.88,3.89,3.89,0,0,1-3.9-3.88Z" transform="translate(1762 898.93)" fill="#fff"/>
        <path id="Trazado_62" data-name="Trazado 62" d="M91.12,4.11a2.34,2.34,0,0,0-1.51-2.18V6.3A2.32,2.32,0,0,0,91.1,4.11ZM88,6.3V1.94A2.33,2.33,0,0,0,88,6.3ZM88.77.43A3.68,3.68,0,1,0,91.382,1.5,3.69,3.69,0,0,0,88.77.43Zm0,7.72a4,4,0,0,1-4.08-4A4,4,0,0,1,88.76.1h1A4.11,4.11,0,0,1,94,4.14a4.19,4.19,0,0,1-4.19,4Z" transform="translate(1762 898.93)" fill="#004c94"/>
        <g id="Grupo_116" data-name="Grupo 116" transform="translate(1761.1 897.44)" clip-path="url(#clip-path)">
          <path id="Trazado_63" data-name="Trazado 63" d="M59.72,7.75c.17,0,.22,0,.21.21v5.5h6.91a.39.39,0,0,0,.32-.14c.31-.36.63-.71,1-1.07.19.22.38.42.58.63s.31.45.52.54a2,2,0,0,0,.78,0h1.35v2.59a.22.22,0,0,1,0,.17h.05V-1.49h0V1.32H69a.26.26,0,0,0-.3.22c-.15.45-.32.9-.49,1.39l-.07-.14-.47-1.32c0-.09-.07-.15-.18-.15H64.2V3.39h0l-.6-1.34-.27-.62a.18.18,0,0,0-.19-.13H60.65c-.14,0-.17.08-.21.18-.55,1.25-1.1,2.5-1.66,3.75l-1,2.31a2.071,2.071,0,0,1-.08.21h2.07Zm5.22.9c0,.23,0,.24-.23.24H62.32c-.26,0-.26,0-.26.27v.53h2.61c.15,0,.21,0,.2.2s0,.58,0,.89H62.06v.72s.11.09.17.09h2.69V12.7H60.74V7.77h4.2Zm6.24,4.07H69.79a.32.32,0,0,1-.29-.13c-.4-.45-.81-.89-1.21-1.33l-.14-.15c-.15.18-.3.33-.45.49l-.92,1a.46.46,0,0,1-.18.1H65c.23-.25.43-.47.64-.68l1.59-1.69c.08-.08.08-.13,0-.22-.72-.75-1.43-1.51-2.14-2.26l-.14-.12h1.62a.37.37,0,0,1,.29.13c.4.46.81.9,1.21,1.35l.12.14.53-.58.86-.93a.24.24,0,0,1,.15-.1h1.66L69,10.23l2.34,2.48Zm.2-1.08-1.33-1.41,1.33-1.4ZM59.1,6.38,60.94,2.2a.21.21,0,0,1,.23-.15h1.42a.2.2,0,0,1,.21.14l2,4.57A.41.41,0,0,0,65,7V2.07h1.94a.2.2,0,0,1,.23.16c.32.92.65,1.83,1,2.75a1.36,1.36,0,0,1,.07.18A1,1,0,0,0,68.27,5c.33-.91.66-1.81,1-2.72a.23.23,0,0,1,.26-.19H71.4V7H70.07V3.62h0a.84.84,0,0,0-.06.14L68.83,6.83a.22.22,0,0,1-.26.19h-.8a.2.2,0,0,1-.24-.17l-1.11-3-.09-.23h-.06v3.2c0,.18,0,.23-.23.23H63.59a.19.19,0,0,1-.22-.15c-.1-.24-.21-.48-.3-.72a.19.19,0,0,0-.2-.13h-2a.18.18,0,0,0-.2.13c-.1.25-.2.49-.31.74a.163.163,0,0,1-.12.12H58.82Z" transform="translate(0.9 1.49)" fill="#fff"/>
          <path id="Trazado_64" data-name="Trazado 64" d="M71.35,16.22a.22.22,0,0,0,0-.17V13.46H70a2,2,0,0,1-.78,0c-.21-.09-.35-.35-.52-.54s-.39-.41-.58-.63c-.34.36-.66.71-1,1.07a.39.39,0,0,1-.32.14H60V8c0-.16,0-.21-.21-.21H57.65a2.069,2.069,0,0,0,.08-.21l1-2.31c.56-1.25,1.11-2.5,1.66-3.75,0-.1.07-.18.21-.18h2.49a.18.18,0,0,1,.19.13l.27.62.6,1.34h0V1.33h3.28c.11,0,.15.06.18.15l.47,1.32.07.14c.17-.49.34-.94.49-1.39a.26.26,0,0,1,.3-.22h2.4V-1.48H44v17.7Z" transform="translate(0.9 1.49)" fill="#4c7cca"/>
          <path id="Trazado_65" data-name="Trazado 65" d="M66.27,3.62v3.2c0,.18,0,.23-.23.23H63.59a.19.19,0,0,1-.22-.15c-.1-.24-.21-.48-.3-.72a.19.19,0,0,0-.2-.13h-2a.18.18,0,0,0-.2.13c-.1.25-.2.49-.31.74a.163.163,0,0,1-.12.12H58.82l.28-.64,1.84-4.2a.21.21,0,0,1,.23-.15h1.42a.2.2,0,0,1,.21.14l2,4.57A.41.41,0,0,0,65,7V2.07h1.94a.2.2,0,0,1,.23.16c.32.92.65,1.83,1,2.75a1.36,1.36,0,0,1,.07.18A1,1,0,0,0,68.27,5c.33-.91.66-1.81,1-2.72a.23.23,0,0,1,.26-.19H71.4V7H70.07V3.62h0a.84.84,0,0,0-.06.14L68.83,6.83a.22.22,0,0,1-.26.19h-.8a.2.2,0,0,1-.24-.17l-1.11-3-.09-.23Zm-4.39-.31h-.06l-.66,1.61h1.39Z" transform="translate(0.9 1.49)" fill="#4c7cca"/>
          <path id="Trazado_66" data-name="Trazado 66" d="M69,10.23l2.34,2.48H69.79a.32.32,0,0,1-.29-.13c-.4-.45-.81-.89-1.21-1.33l-.14-.15c-.15.18-.3.33-.45.49l-.92,1a.46.46,0,0,1-.18.1H65c.23-.25.43-.47.64-.68l1.59-1.69c.08-.08.08-.13,0-.22-.72-.75-1.43-1.51-2.14-2.26l-.14-.12v.9c0,.23,0,.24-.23.24h-2.4c-.26,0-.26,0-.26.27v.53h2.61c.15,0,.21,0,.2.2s0,.58,0,.89H62.06v.72s.11.09.17.09h2.69v1.11H60.74V7.77h5.82a.37.37,0,0,1,.29.13c.4.46.81.9,1.21,1.35l.12.14.53-.58.86-.93a.24.24,0,0,1,.15-.1h1.66Z" transform="translate(0.9 1.49)" fill="#4c7cca"/>
          <path id="Trazado_67" data-name="Trazado 67" d="M71.38,11.64l-1.33-1.41,1.33-1.4Z" transform="translate(0.9 1.49)" fill="#4c7cca"/>
          <path id="Trazado_68" data-name="Trazado 68" d="M61.88,3.31l.67,1.61H61.16l.66-1.61Z" transform="translate(0.9 1.49)" fill="#fff"/>
        </g>
        <path id="Trazado_69" data-name="Trazado 69" d="M33.66,12.81a.55.55,0,0,0-.3-.3.59.59,0,0,0-.23,0h-.27l-.13.08a.45.45,0,0,0-.1.13.61.61,0,0,0-.2-.19.54.54,0,0,0-.29-.07h-.25a.39.39,0,0,0-.11.06.52.52,0,0,0-.1.11v-.18h-.3V14h.31v-.8a.47.47,0,0,1,0-.17.75.75,0,0,1,.07-.12l.12-.07a.32.32,0,0,1,.14,0,.33.33,0,0,1,.24.1.41.41,0,0,1,.09.28V14h.31v-.81a.41.41,0,0,1,0-.16.36.36,0,0,1,.08-.12.24.24,0,0,1,.12-.07.32.32,0,0,1,.14,0,.3.3,0,0,1,.24.1.39.39,0,0,1,.08.28V14h.31V13a.59.59,0,0,0,.03-.19Z" transform="translate(1762 898.93)" fill="#fff"/>
        <path id="Trazado_70" data-name="Trazado 70" d="M35.16,12.5v.17a.65.65,0,0,0-.18-.15.6.6,0,0,0-.27-.06.72.72,0,0,0-.29.06.87.87,0,0,0-.23.16,1,1,0,0,0-.15.24.81.81,0,0,0-.06.31.94.94,0,0,0,.06.3.72.72,0,0,0,.16.25.61.61,0,0,0,.23.15.67.67,0,0,0,.28.06.54.54,0,0,0,.27-.06.58.58,0,0,0,.19-.16V14h.31V12.5Zm0,.91a.71.71,0,0,1-.08.15.42.42,0,0,1-.14.09.37.37,0,0,1-.18,0,.34.34,0,0,1-.18,0,.28.28,0,0,1-.14-.1.42.42,0,0,1-.09-.14.57.57,0,0,1,0-.18.48.48,0,0,1,0-.18.38.38,0,0,1,.09-.15.32.32,0,0,1,.13-.1.41.41,0,0,1,.19,0,.33.33,0,0,1,.17,0,.34.34,0,0,1,.14.09.38.38,0,0,1,.09.15,1.159,1.159,0,0,1,0,.18.41.41,0,0,1-.01.19Z" transform="translate(1762 898.93)" fill="#fff"/>
        <path id="Trazado_71" data-name="Trazado 71" d="M36.56,13.08h-.37v-.06a.16.16,0,0,1,.08-.13.34.34,0,0,1,.2,0h.45l.13-.25a.68.68,0,0,0-.26-.11,1.15,1.15,0,0,0-.33,0,1,1,0,0,0-.25,0,.51.51,0,0,0-.18.09.35.35,0,0,0-.12.15.41.41,0,0,0,0,.19.37.37,0,0,0,.12.29.74.74,0,0,0,.37.14h.15a.38.38,0,0,1,.19.06.11.11,0,0,1,.06.1.15.15,0,0,1-.08.13.68.68,0,0,1-.25.05h-.16a.24.24,0,0,1-.12,0h-.11L36,13.67l-.15.24a.65.65,0,0,0,.16.09l.17.06h.29a.79.79,0,0,0,.28,0,.67.67,0,0,0,.21-.09A.87.87,0,0,0,37,13.7a.45.45,0,0,0,0-.2.34.34,0,0,0-.13-.28A.78.78,0,0,0,36.56,13.08Z" transform="translate(1762 898.93)" fill="#fff"/>
        <path id="Trazado_72" data-name="Trazado 72" d="M39.9,12.65a.86.86,0,0,0-.22-.15.66.66,0,0,0-.28-.05.68.68,0,0,0-.29.05.63.63,0,0,0-.23.16,1,1,0,0,0-.15.24,1,1,0,0,0,0,.31.75.75,0,0,0,.06.31.58.58,0,0,0,.15.24.78.78,0,0,0,.24.16.94.94,0,0,0,.3.05.81.81,0,0,0,.31-.05.72.72,0,0,0,.28-.16l-.16-.22a.49.49,0,0,1-.2.11.54.54,0,0,1-.22,0,.32.32,0,0,1-.14,0,.31.31,0,0,1-.13-.06.4.4,0,0,1-.1-.12.38.38,0,0,1-.06-.16h1.07a.11.11,0,0,0,0-.06V13.2a1.06,1.06,0,0,0-.05-.31,1,1,0,0,0-.18-.24Zm-.89.44a.54.54,0,0,1,0-.15.44.44,0,0,1,.08-.11.36.36,0,0,1,.12-.08h.15a.32.32,0,0,1,.24.09.38.38,0,0,1,.12.26Z" transform="translate(1762 898.93)" fill="#fff"/>
        <path id="Trazado_73" data-name="Trazado 73" d="M44.1,12.47v.17a.58.58,0,0,0-.19-.15.54.54,0,0,0-.27-.06.67.67,0,0,0-.28.06.63.63,0,0,0-.23.16.67.67,0,0,0-.16.24,1,1,0,0,0,0,.31.73.73,0,0,0,.06.3.65.65,0,0,0,.15.24.87.87,0,0,0,.23.16.72.72,0,0,0,.29.06.6.6,0,0,0,.27-.06.55.55,0,0,0,.18-.16v.18h.32V12.46Zm0,.91a.42.42,0,0,1-.09.14.36.36,0,0,1-.14.1.48.48,0,0,1-.18,0,.37.37,0,0,1-.18,0,.45.45,0,0,1-.14-.1.53.53,0,0,1-.08-.15.48.48,0,0,1,0-.18.57.57,0,0,1,0-.18.29.29,0,0,1,.08-.14.28.28,0,0,1,.14-.1.34.34,0,0,1,.18,0,.48.48,0,0,1,.18,0,.71.71,0,0,1,.14.1.38.38,0,0,1,.09.15.48.48,0,0,1,0,.18.58.58,0,0,1-.01.18Z" transform="translate(1762 898.93)" fill="#fff"/>
        <path id="Trazado_74" data-name="Trazado 74" d="M38.29,13.65h-.31a.26.26,0,0,1,0-.09.37.37,0,0,1,0-.12v-.63h.51v-.28h-.51v-.44h-.32v.44H37.3v.29h.29v.63a.63.63,0,0,0,.14.43.53.53,0,0,0,.39.14.6.6,0,0,0,.24-.05l.14-.06-.11-.27Z" transform="translate(1762 898.93)" fill="#fff"/>
        <path id="Trazado_75" data-name="Trazado 75" d="M41.15,12.44a.6.6,0,0,0-.24.05.39.39,0,0,0-.18.18v-.19h-.28v1.45h.29v-.8a.38.38,0,0,1,0-.16.33.33,0,0,1,.07-.13.23.23,0,0,1,.1-.07.35.35,0,0,1,.14,0h.19l.09-.3h-.07Z" transform="translate(1762 898.93)" fill="#fff"/>
        <path id="Trazado_76" data-name="Trazado 76" d="M45.54,12.42a.6.6,0,0,0-.24.05.52.52,0,0,0-.18.18v-.19h-.28v1.45h.29v-.8a.78.78,0,0,1,0-.16.35.35,0,0,1,.07-.12.28.28,0,0,1,.11-.08.32.32,0,0,1,.14,0h.19l.09-.3h-.08Z" transform="translate(1762 898.93)" fill="#fff"/>
        <path id="Trazado_77" data-name="Trazado 77" d="M47.33,11.86H47v.76a.58.58,0,0,0-.19-.15.53.53,0,0,0-.26-.06.68.68,0,0,0-.29.06.73.73,0,0,0-.23.16.58.58,0,0,0-.15.24.73.73,0,0,0-.06.3.75.75,0,0,0,.06.31.78.78,0,0,0,.16.24.63.63,0,0,0,.23.16.52.52,0,0,0,.28,0,.76.76,0,0,0,.27,0,.58.58,0,0,0,.19-.16v.18h.31ZM47,13.37a.42.42,0,0,1-.09.14.32.32,0,0,1-.13.1.45.45,0,0,1-.37,0,.32.32,0,0,1-.13-.1.38.38,0,0,1-.09-.15.48.48,0,0,1,0-.18.57.57,0,0,1,0-.18.64.64,0,0,1,.08-.14.49.49,0,0,1,.14-.11.52.52,0,0,1,.18,0,.48.48,0,0,1,.18,0,.5.5,0,0,1,.14.1A.38.38,0,0,1,47,13a.48.48,0,0,1,0,.18.58.58,0,0,1,0,.19Z" transform="translate(1762 898.93)" fill="#fff"/>
        <path id="Trazado_78" data-name="Trazado 78" d="M42.43,13.63a.64.64,0,0,1-.2,0h-.18a.33.33,0,0,1-.14-.1.45.45,0,0,1-.1-.14.62.62,0,0,1,0-.38.36.36,0,0,1,.24-.24.47.47,0,0,1,.38,0,.46.46,0,0,1,.15.09l.15-.26a1.18,1.18,0,0,0-.19-.11.65.65,0,0,0-.31-.05,1,1,0,0,0-.31.05.74.74,0,0,0-.25.17.6.6,0,0,0-.16.24.78.78,0,0,0,0,.6.6.6,0,0,0,.16.24.67.67,0,0,0,.25.16.81.81,0,0,0,.31.06.78.78,0,0,0,.31-.06l.2-.11-.16-.25a.54.54,0,0,1-.15.09Z" transform="translate(1762 898.93)" fill="#fff"/>
        <path id="Trazado_79" data-name="Trazado 79" d="M37.26,5.71a5.46,5.46,0,0,1,2.06-4.29A5.53,5.53,0,0,0,35.92.25,5.47,5.47,0,1,0,39.35,10a5.43,5.43,0,0,1-2.09-4.29Z" transform="translate(1762 898.93)" fill="#ea001b"/>
        <path id="Trazado_80" data-name="Trazado 80" d="M37.26,5.71A5.43,5.43,0,0,0,39.35,10a5.46,5.46,0,0,0,0-8.57,5.46,5.46,0,0,0-2.09,4.28Z" transform="translate(1762 898.93)" fill="#ff5f01"/>
        <path id="Trazado_82" data-name="Trazado 82" d="M42.7.23a5.41,5.41,0,0,0-3.38,1.19,5.46,5.46,0,0,1,0,8.57A5.46,5.46,0,1,0,42.7.23Z" transform="translate(1762 898.93)" fill="#f79f1a"/>
        <g id="Grupo_123" data-name="Grupo 123" transform="translate(1761.1 897.44)" clip-path="url(#clip-path-2)">
          <rect id="Rectángulo_58" data-name="Rectángulo 58" width="22.85" height="14.13" transform="translate(-0.001 1.283) rotate(-0.2)" fill="#fff"/>
          <path id="Trazado_83" data-name="Trazado 83" d="M7.26,4.36,5.8,8.21,5.18,5a.67.67,0,0,0-.66-.58H2.1v.17A6,6,0,0,1,3.48,5a.63.63,0,0,1,.34.5L5,10H6.5L8.76,4.36Z" transform="translate(0.9 1.49)"/>
          <path id="SVGID-7" data-name="SVGID" d="M7.26,4.36,5.8,8.21,5.18,5a.67.67,0,0,0-.66-.58H2.1v.17A6,6,0,0,1,3.48,5a.63.63,0,0,1,.34.5L5,10H6.5L8.76,4.36Z" transform="translate(0.9 1.49)" fill="#004d93"/>
          <g id="Grupo_117" data-name="Grupo 117" clip-path="url(#clip-path-3)">
            <path id="Trazado_84" data-name="Trazado 84" d="M3.01,5.85l.02,5.65H2.98V5.85Z" fill="#004d93"/>
            <path id="Trazado_85" data-name="Trazado 85" d="M3.33,5.85l.02,5.65H3.03L3.01,5.85Z" fill="#004d93"/>
            <path id="Trazado_86" data-name="Trazado 86" d="M3.64,5.85l.02,5.65H3.35L3.33,5.85Z" fill="#004d93"/>
            <path id="Trazado_87" data-name="Trazado 87" d="M3.96,5.85l.02,5.65H3.66L3.64,5.85Z" fill="#004d93"/>
            <path id="Trazado_88" data-name="Trazado 88" d="M4.27,5.85l.02,5.65H3.98L3.96,5.85Z" fill="#004d93"/>
            <path id="Trazado_89" data-name="Trazado 89" d="M4.58,5.85l.03,5.65H4.29L4.27,5.85Z" fill="#004d93"/>
            <path id="Trazado_90" data-name="Trazado 90" d="M4.9,5.85l.02,5.65H4.61L4.58,5.85Z" fill="#004d93"/>
            <path id="Trazado_91" data-name="Trazado 91" d="M5.21,5.85l.03,5.65H4.92L4.9,5.85Z" fill="#004d93"/>
            <path id="Trazado_92" data-name="Trazado 92" d="M5.53,5.85l.02,5.65H5.24L5.21,5.85Z" fill="#004d93"/>
            <path id="Trazado_93" data-name="Trazado 93" d="M5.84,5.85l.03,5.65H5.55L5.53,5.85Z" fill="#004d93"/>
            <path id="Trazado_94" data-name="Trazado 94" d="M6.16,5.85l.02,5.65H5.87L5.84,5.85Z" fill="#004d93"/>
            <path id="Trazado_95" data-name="Trazado 95" d="M6.47,5.85,6.5,11.5H6.18L6.16,5.85Z" fill="#004d93"/>
            <path id="Trazado_96" data-name="Trazado 96" d="M6.79,5.85l.02,5.65H6.5L6.47,5.85Z" fill="#004d93"/>
            <path id="Trazado_97" data-name="Trazado 97" d="M7.11,5.85l.02,5.65H6.81L6.79,5.85Z" fill="#004d93"/>
            <path id="Trazado_98" data-name="Trazado 98" d="M7.42,5.85l.02,5.65H7.13L7.11,5.85Z" fill="#004d93"/>
            <path id="Trazado_99" data-name="Trazado 99" d="M7.74,5.85l.02,5.65H7.44L7.42,5.85Z" fill="#004d93"/>
            <path id="Trazado_100" data-name="Trazado 100" d="M8.05,5.85l.02,5.65H7.76L7.74,5.85Z" fill="#004d93"/>
            <path id="Trazado_101" data-name="Trazado 101" d="M8.37,5.85l.02,5.65H8.07L8.05,5.85Z" fill="#004d93"/>
            <path id="Trazado_102" data-name="Trazado 102" d="M8.68,5.85,8.7,11.5H8.39L8.37,5.85Z" fill="#004d93"/>
            <path id="Trazado_103" data-name="Trazado 103" d="M8.99,5.85l.03,5.65H8.7L8.68,5.85Z" fill="#004d93"/>
            <path id="Trazado_104" data-name="Trazado 104" d="M9.31,5.85l.02,5.65H9.02L8.99,5.85Z" fill="#004d93"/>
            <path id="Trazado_105" data-name="Trazado 105" d="M9.63,5.85l.02,5.65H9.33L9.31,5.85Z" fill="#004d93"/>
            <path id="Trazado_106" data-name="Trazado 106" d="M9.65,11.5,9.63,5.85h.03V11.5Z" fill="#004d93"/>
          </g>
          <rect id="SVGID-8" data-name="SVGID" width="22.15" height="2.03" transform="translate(0.79 1.57)" fill="#004d93"/>
          <g id="Grupo_118" data-name="Grupo 118" clip-path="url(#clip-path-4)">
            <path id="Trazado_107" data-name="Trazado 107" d="M.79,1.58.8,3.61H.79Z" fill="#004d93"/>
            <path id="Trazado_108" data-name="Trazado 108" d="M1.17,1.5l.02,2.11H.63L.62,1.58V1.5Z" fill="#004d93"/>
            <path id="Trazado_109" data-name="Trazado 109" d="M1.57,1.5V3.61H1.19L1.18,1.5Z" fill="#004d93"/>
            <path id="Trazado_110" data-name="Trazado 110" d="M1.95,1.5l.01,2.11H1.57V1.5Z" fill="#004d93"/>
            <path id="Trazado_111" data-name="Trazado 111" d="M2.34,1.5l.01,2.11H1.96L1.95,1.5Z" fill="#004d93"/>
            <path id="Trazado_112" data-name="Trazado 112" d="M2.73,1.5l.01,2.11H2.35L2.34,1.5Z" fill="#004d93"/>
            <path id="Trazado_113" data-name="Trazado 113" d="M3.12,1.5l.01,2.11H2.74L2.73,1.5Z" fill="#004d93"/>
            <path id="Trazado_114" data-name="Trazado 114" d="M3.51,1.5l.01,2.11H3.13L3.12,1.5Z" fill="#004d93"/>
            <path id="Trazado_115" data-name="Trazado 115" d="M3.9,1.5V3.61H3.52L3.51,1.5Z" fill="#004d93"/>
            <path id="Trazado_116" data-name="Trazado 116" d="M4.29,1.5V3.61H3.9V1.5Z" fill="#004d93"/>
            <path id="Trazado_117" data-name="Trazado 117" d="M4.67,1.5l.01,2.11H4.29V1.5Z" fill="#004d93"/>
            <path id="Trazado_118" data-name="Trazado 118" d="M5.06,1.5l.01,2.11H4.68L4.67,1.5Z" fill="#004d93"/>
            <path id="Trazado_119" data-name="Trazado 119" d="M5.45,1.5l.01,2.11H5.07L5.06,1.5Z" fill="#004d93"/>
            <path id="Trazado_120" data-name="Trazado 120" d="M5.84,1.5l.01,2.11H5.46L5.45,1.5Z" fill="#004d93"/>
            <path id="Trazado_121" data-name="Trazado 121" d="M6.23,1.5l.01,2.11H5.85L5.84,1.5Z" fill="#004d93"/>
            <path id="Trazado_122" data-name="Trazado 122" d="M6.62,1.5V3.61H6.24L6.23,1.5Z" fill="#004d93"/>
            <path id="Trazado_123" data-name="Trazado 123" d="M7,1.5l.01,2.11H6.62V1.5Z" fill="#004d93"/>
            <path id="Trazado_124" data-name="Trazado 124" d="M7.39,1.5,7.4,3.61H7.01L7,1.5Z" fill="#004d93"/>
            <path id="Trazado_125" data-name="Trazado 125" d="M7.78,1.5l.01,2.11H7.4L7.39,1.5Z" fill="#004d93"/>
            <path id="Trazado_126" data-name="Trazado 126" d="M8.17,1.5l.01,2.11H7.79L7.78,1.5Z" fill="#004d93"/>
            <path id="Trazado_127" data-name="Trazado 127" d="M8.56,1.5l.01,2.11H8.18L8.17,1.5Z" fill="#004d93"/>
            <path id="Trazado_128" data-name="Trazado 128" d="M8.95,1.5l.01,2.11H8.57L8.56,1.5Z" fill="#004d93"/>
            <path id="Trazado_129" data-name="Trazado 129" d="M9.34,1.5V3.61H8.96L8.95,1.5Z" fill="#004d93"/>
            <path id="Trazado_130" data-name="Trazado 130" d="M9.72,1.5l.01,2.11H9.34V1.5Z" fill="#004d93"/>
            <path id="Trazado_131" data-name="Trazado 131" d="M10.11,1.5l.01,2.11H9.73L9.72,1.5Z" fill="#004d93"/>
            <path id="Trazado_132" data-name="Trazado 132" d="M10.5,1.5l.01,2.11h-.39L10.11,1.5Z" fill="#004d93"/>
            <path id="Trazado_133" data-name="Trazado 133" d="M10.89,1.5l.01,2.11h-.39L10.5,1.5Z" fill="#004d93"/>
            <path id="Trazado_134" data-name="Trazado 134" d="M11.28,1.5l.01,2.11H10.9L10.89,1.5Z" fill="#004d93"/>
            <path id="Trazado_135" data-name="Trazado 135" d="M11.67,1.5l.01,2.11h-.39L11.28,1.5Z" fill="#004d93"/>
            <path id="Trazado_136" data-name="Trazado 136" d="M12.06,1.5V3.61h-.38L11.67,1.5Z" fill="#004d93"/>
            <path id="Trazado_137" data-name="Trazado 137" d="M12.44,1.5l.01,2.11h-.39V1.5Z" fill="#004d93"/>
            <path id="Trazado_138" data-name="Trazado 138" d="M12.83,1.5l.01,2.11h-.39L12.44,1.5Z" fill="#004d93"/>
            <path id="Trazado_139" data-name="Trazado 139" d="M13.22,1.5l.01,2.11h-.39L12.83,1.5Z" fill="#004d93"/>
            <path id="Trazado_140" data-name="Trazado 140" d="M13.61,1.5l.01,2.11h-.39L13.22,1.5Z" fill="#004d93"/>
            <path id="Trazado_141" data-name="Trazado 141" d="M14,1.5l.01,2.11h-.39L13.61,1.5Z" fill="#004d93"/>
            <path id="Trazado_142" data-name="Trazado 142" d="M14.39,1.5V3.61h-.38L14,1.5Z" fill="#004d93"/>
            <path id="Trazado_143" data-name="Trazado 143" d="M14.78,1.5V3.61h-.39V1.5Z" fill="#004d93"/>
            <path id="Trazado_144" data-name="Trazado 144" d="M15.16,1.5l.01,2.11h-.39V1.5Z" fill="#004d93"/>
            <path id="Trazado_145" data-name="Trazado 145" d="M15.55,1.5l.01,2.11h-.39L15.16,1.5Z" fill="#004d93"/>
            <path id="Trazado_146" data-name="Trazado 146" d="M15.94,1.5l.01,2.11h-.39L15.55,1.5Z" fill="#004d93"/>
            <path id="Trazado_147" data-name="Trazado 147" d="M16.33,1.5l.01,2.11h-.39L15.94,1.5Z" fill="#004d93"/>
            <path id="Trazado_148" data-name="Trazado 148" d="M16.72,1.5l.01,2.11h-.39L16.33,1.5Z" fill="#004d93"/>
            <path id="Trazado_149" data-name="Trazado 149" d="M17.11,1.5V3.61h-.38L16.72,1.5Z" fill="#004d93"/>
            <path id="Trazado_150" data-name="Trazado 150" d="M17.5,1.5V3.61h-.39V1.5Z" fill="#004d93"/>
            <path id="Trazado_151" data-name="Trazado 151" d="M17.88,1.5l.01,2.11H17.5V1.5Z" fill="#004d93"/>
            <path id="Trazado_152" data-name="Trazado 152" d="M18.27,1.5l.01,2.11h-.39L17.88,1.5Z" fill="#004d93"/>
            <path id="Trazado_153" data-name="Trazado 153" d="M18.66,1.5l.01,2.11h-.39L18.27,1.5Z" fill="#004d93"/>
            <path id="Trazado_154" data-name="Trazado 154" d="M19.05,1.5l.01,2.11h-.39L18.66,1.5Z" fill="#004d93"/>
            <path id="Trazado_155" data-name="Trazado 155" d="M19.44,1.5l.01,2.11h-.39L19.05,1.5Z" fill="#004d93"/>
            <path id="Trazado_156" data-name="Trazado 156" d="M19.83,1.5V3.61h-.38L19.44,1.5Z" fill="#004d93"/>
            <path id="Trazado_157" data-name="Trazado 157" d="M20.21,1.5l.01,2.11h-.39V1.5Z" fill="#004d93"/>
            <path id="Trazado_158" data-name="Trazado 158" d="M20.6,1.5l.01,2.11h-.39L20.21,1.5Z" fill="#004d93"/>
            <path id="Trazado_159" data-name="Trazado 159" d="M20.99,1.5,21,3.61h-.39L20.6,1.5Z" fill="#004d93"/>
            <path id="Trazado_160" data-name="Trazado 160" d="M21.38,1.5l.01,2.11H21L20.99,1.5Z" fill="#004d93"/>
            <path id="Trazado_161" data-name="Trazado 161" d="M21.77,1.5l.01,2.11h-.39L21.38,1.5Z" fill="#004d93"/>
            <path id="Trazado_162" data-name="Trazado 162" d="M22.16,1.5V3.61h-.38L21.77,1.5Z" fill="#004d93"/>
            <path id="Trazado_163" data-name="Trazado 163" d="M22.55,1.5V3.61h-.39V1.5Z" fill="#004d93"/>
            <path id="Trazado_164" data-name="Trazado 164" d="M22.93,1.5l.01,2.03v.08h-.39V1.5Z" fill="#004d93"/>
            <path id="Trazado_165" data-name="Trazado 165" d="M22.94,3.53,22.93,1.5h.01Z" fill="#004d93"/>
          </g>
          <rect id="SVGID-9" data-name="SVGID" width="22.15" height="2.03" transform="translate(0.835 13.78) rotate(-0.21)" fill="#f3a409"/>
          <g id="Grupo_119" data-name="Grupo 119" clip-path="url(#clip-path-5)">
            <path id="Trazado_166" data-name="Trazado 166" d="M.83,13.78l.01,2.03H.83Z" fill="#f3a409"/>
            <path id="Trazado_167" data-name="Trazado 167" d="M1.23,13.7l.01,2.11H.84L.83,13.78V13.7Z" fill="#f3a409"/>
            <path id="Trazado_168" data-name="Trazado 168" d="M1.63,13.7v2.11H1.24L1.23,13.7Z" fill="#f3a409"/>
            <path id="Trazado_169" data-name="Trazado 169" d="M2.02,13.7l.01,2.11h-.4V13.7Z" fill="#f3a409"/>
            <path id="Trazado_170" data-name="Trazado 170" d="M2.42,13.7v2.11H2.03L2.02,13.7Z" fill="#f3a409"/>
            <path id="Trazado_171" data-name="Trazado 171" d="M2.81,13.7l.01,2.11h-.4V13.7Z" fill="#f3a409"/>
            <path id="Trazado_172" data-name="Trazado 172" d="M3.21,13.7v2.11H2.82L2.81,13.7Z" fill="#f3a409"/>
            <path id="Trazado_173" data-name="Trazado 173" d="M3.6,13.7l.01,2.11h-.4V13.7Z" fill="#f3a409"/>
            <path id="Trazado_174" data-name="Trazado 174" d="M4,13.7v2.11H3.61L3.6,13.7Z" fill="#f3a409"/>
            <path id="Trazado_175" data-name="Trazado 175" d="M4.39,13.7l.01,2.11H4V13.7Z" fill="#f3a409"/>
            <path id="Trazado_176" data-name="Trazado 176" d="M4.79,13.7l.01,2.11H4.4L4.39,13.7Z" fill="#f3a409"/>
            <path id="Trazado_177" data-name="Trazado 177" d="M5.18,13.7l.01,2.11H4.8L4.79,13.7Z" fill="#f3a409"/>
            <path id="Trazado_178" data-name="Trazado 178" d="M5.58,13.7l.01,2.11h-.4L5.18,13.7Z" fill="#f3a409"/>
            <path id="Trazado_179" data-name="Trazado 179" d="M5.97,13.7l.01,2.11H5.59L5.58,13.7Z" fill="#f3a409"/>
            <path id="Trazado_180" data-name="Trazado 180" d="M6.37,13.7l.01,2.11h-.4L5.97,13.7Z" fill="#f3a409"/>
            <path id="Trazado_181" data-name="Trazado 181" d="M6.77,13.7v2.11H6.38L6.37,13.7Z" fill="#f3a409"/>
            <path id="Trazado_182" data-name="Trazado 182" d="M7.16,13.7l.01,2.11h-.4V13.7Z" fill="#f3a409"/>
            <path id="Trazado_183" data-name="Trazado 183" d="M7.56,13.7v2.11H7.17L7.16,13.7Z" fill="#f3a409"/>
            <path id="Trazado_184" data-name="Trazado 184" d="M7.95,13.7l.01,2.11h-.4V13.7Z" fill="#f3a409"/>
            <path id="Trazado_185" data-name="Trazado 185" d="M8.35,13.7l.01,2.11h-.4L7.95,13.7Z" fill="#f3a409"/>
            <path id="Trazado_186" data-name="Trazado 186" d="M8.74,13.7l.01,2.11H8.36L8.35,13.7Z" fill="#f3a409"/>
            <path id="Trazado_187" data-name="Trazado 187" d="M9.14,13.7l.01,2.11h-.4L8.74,13.7Z" fill="#f3a409"/>
            <path id="Trazado_188" data-name="Trazado 188" d="M9.53,13.7l.01,2.11H9.15L9.14,13.7Z" fill="#f3a409"/>
            <path id="Trazado_189" data-name="Trazado 189" d="M9.93,13.7l.01,2.11h-.4L9.53,13.7Z" fill="#f3a409"/>
            <path id="Trazado_190" data-name="Trazado 190" d="M10.32,13.7l.01,2.11H9.94L9.93,13.7Z" fill="#f3a409"/>
            <path id="Trazado_191" data-name="Trazado 191" d="M10.72,13.7l.01,2.11h-.4l-.01-2.11Z" fill="#f3a409"/>
            <path id="Trazado_192" data-name="Trazado 192" d="M11.12,13.7v2.11h-.39l-.01-2.11Z" fill="#f3a409"/>
            <path id="Trazado_193" data-name="Trazado 193" d="M11.51,13.7l.01,2.11h-.4V13.7Z" fill="#f3a409"/>
            <path id="Trazado_194" data-name="Trazado 194" d="M11.91,13.7v2.11h-.39l-.01-2.11Z" fill="#f3a409"/>
            <path id="Trazado_195" data-name="Trazado 195" d="M12.3,13.7l.01,2.11h-.4V13.7Z" fill="#f3a409"/>
            <path id="Trazado_196" data-name="Trazado 196" d="M12.7,13.7l.01,2.11h-.4L12.3,13.7Z" fill="#f3a409"/>
            <path id="Trazado_197" data-name="Trazado 197" d="M13.09,13.7l.01,2.11h-.39L12.7,13.7Z" fill="#f3a409"/>
            <path id="Trazado_198" data-name="Trazado 198" d="M13.49,13.7l.01,2.11h-.4l-.01-2.11Z" fill="#f3a409"/>
            <path id="Trazado_199" data-name="Trazado 199" d="M13.88,13.7l.01,2.11H13.5l-.01-2.11Z" fill="#f3a409"/>
            <path id="Trazado_200" data-name="Trazado 200" d="M14.28,13.7l.01,2.11h-.4l-.01-2.11Z" fill="#f3a409"/>
            <path id="Trazado_201" data-name="Trazado 201" d="M14.68,13.7v2.11h-.39l-.01-2.11Z" fill="#f3a409"/>
            <path id="Trazado_202" data-name="Trazado 202" d="M15.07,13.7l.01,2.11h-.4V13.7Z" fill="#f3a409"/>
            <path id="Trazado_203" data-name="Trazado 203" d="M15.47,13.7v2.11h-.39l-.01-2.11Z" fill="#f3a409"/>
            <path id="Trazado_204" data-name="Trazado 204" d="M15.86,13.7l.01,2.11h-.4V13.7Z" fill="#f3a409"/>
            <path id="Trazado_205" data-name="Trazado 205" d="M16.26,13.7l.01,2.11h-.4l-.01-2.11Z" fill="#f3a409"/>
            <path id="Trazado_206" data-name="Trazado 206" d="M16.65,13.7l.01,2.11h-.39l-.01-2.11Z" fill="#f3a409"/>
            <path id="Trazado_207" data-name="Trazado 207" d="M17.05,13.7l.01,2.11h-.4l-.01-2.11Z" fill="#f3a409"/>
            <path id="Trazado_208" data-name="Trazado 208" d="M17.44,13.7l.01,2.11h-.39l-.01-2.11Z" fill="#f3a409"/>
            <path id="Trazado_209" data-name="Trazado 209" d="M17.84,13.7l.01,2.11h-.4l-.01-2.11Z" fill="#f3a409"/>
            <path id="Trazado_210" data-name="Trazado 210" d="M18.23,13.7l.01,2.11h-.39l-.01-2.11Z" fill="#f3a409"/>
            <path id="Trazado_211" data-name="Trazado 211" d="M18.63,13.7l.01,2.11h-.4l-.01-2.11Z" fill="#f3a409"/>
            <path id="Trazado_212" data-name="Trazado 212" d="M19.02,13.7l.01,2.11h-.39l-.01-2.11Z" fill="#f3a409"/>
            <path id="Trazado_213" data-name="Trazado 213" d="M19.42,13.7l.01,2.11h-.4l-.01-2.11Z" fill="#f3a409"/>
            <path id="Trazado_214" data-name="Trazado 214" d="M19.82,13.7v2.11h-.39l-.01-2.11Z" fill="#f3a409"/>
            <path id="Trazado_215" data-name="Trazado 215" d="M20.21,13.7l.01,2.11h-.4V13.7Z" fill="#f3a409"/>
            <path id="Trazado_216" data-name="Trazado 216" d="M20.61,13.7v2.11h-.39l-.01-2.11Z" fill="#f3a409"/>
            <path id="Trazado_217" data-name="Trazado 217" d="M21,13.7l.01,2.11h-.4V13.7Z" fill="#f3a409"/>
            <path id="Trazado_218" data-name="Trazado 218" d="M21.4,13.7l.01,2.11h-.4L21,13.7Z" fill="#f3a409"/>
            <path id="Trazado_219" data-name="Trazado 219" d="M21.79,13.7l.01,2.11h-.39L21.4,13.7Z" fill="#f3a409"/>
            <path id="Trazado_220" data-name="Trazado 220" d="M22.19,13.7l.01,2.11h-.4l-.01-2.11Z" fill="#f3a409"/>
            <path id="Trazado_221" data-name="Trazado 221" d="M22.58,13.7l.01,2.11H22.2l-.01-2.11Z" fill="#f3a409"/>
            <path id="Trazado_222" data-name="Trazado 222" d="M22.98,13.7l.01,2.03v.08h-.4l-.01-2.11Z" fill="#f3a409"/>
            <path id="Trazado_223" data-name="Trazado 223" d="M22.99,15.73l-.01-2.03h.01Z" fill="#f3a409"/>
          </g>
          <path id="Trazado_224" data-name="Trazado 224" d="M12.66,5.91c0-.2.19-.42.6-.48a2.62,2.62,0,0,1,1.41.25l.24-1.2a3.91,3.91,0,0,0-1.33-.24c-1.4,0-2.39.77-2.39,1.87,0,.81.71,1.26,1.25,1.53s.74.45.74.7-.44.54-.85.55a2.87,2.87,0,0,1-1.47-.35l-.25,1.24a4.24,4.24,0,0,0,1.58.29c1.5,0,2.48-.77,2.48-1.94C14.67,6.65,12.65,6.57,12.66,5.91Z" transform="translate(0.9 1.49)"/>
          <path id="SVGID-10" data-name="SVGID" d="M12.66,5.91c0-.2.19-.42.6-.48a2.62,2.62,0,0,1,1.41.25l.24-1.2a3.91,3.91,0,0,0-1.33-.24c-1.4,0-2.39.77-2.39,1.87,0,.81.71,1.26,1.25,1.53s.74.45.74.7-.44.54-.85.55a2.87,2.87,0,0,1-1.47-.35l-.25,1.24a4.24,4.24,0,0,0,1.58.29c1.5,0,2.48-.77,2.48-1.94C14.67,6.65,12.65,6.57,12.66,5.91Z" transform="translate(0.9 1.49)" fill="#004d93"/>
          <g id="Grupo_120" data-name="Grupo 120" clip-path="url(#clip-path-6)">
            <path id="Trazado_225" data-name="Trazado 225" d="M11.52,5.73l.02,5.83h-.02V5.73Z" fill="#004d93"/>
            <path id="Trazado_226" data-name="Trazado 226" d="M11.83,5.73l.02,5.83h-.31l-.02-5.83Z" fill="#004d93"/>
            <path id="Trazado_227" data-name="Trazado 227" d="M12.14,5.73l.03,5.83h-.32l-.02-5.83Z" fill="#004d93"/>
            <path id="Trazado_228" data-name="Trazado 228" d="M12.46,5.73l.02,5.83h-.31l-.03-5.83Z" fill="#004d93"/>
            <path id="Trazado_229" data-name="Trazado 229" d="M12.78,5.73l.02,5.83h-.32l-.02-5.83Z" fill="#004d93"/>
            <path id="Trazado_230" data-name="Trazado 230" d="M13.09,5.73l.02,5.83H12.8l-.02-5.83Z" fill="#004d93"/>
            <path id="Trazado_231" data-name="Trazado 231" d="M13.4,5.73l.03,5.83h-.32l-.02-5.83Z" fill="#004d93"/>
            <path id="Trazado_232" data-name="Trazado 232" d="M13.72,5.73l.02,5.83h-.31L13.4,5.73Z" fill="#004d93"/>
            <path id="Trazado_233" data-name="Trazado 233" d="M14.04,5.73l.02,5.83h-.32l-.02-5.83Z" fill="#004d93"/>
            <path id="Trazado_234" data-name="Trazado 234" d="M14.35,5.73l.02,5.83h-.31l-.02-5.83Z" fill="#004d93"/>
            <path id="Trazado_235" data-name="Trazado 235" d="M14.66,5.73l.03,5.83h-.32l-.02-5.83Z" fill="#004d93"/>
            <path id="Trazado_236" data-name="Trazado 236" d="M14.98,5.73,15,11.56h-.31l-.03-5.83Z" fill="#004d93"/>
            <path id="Trazado_237" data-name="Trazado 237" d="M15.29,5.73l.03,5.83H15l-.02-5.83Z" fill="#004d93"/>
            <path id="Trazado_238" data-name="Trazado 238" d="M15.61,5.73l.02,5.83h-.31l-.03-5.83Z" fill="#004d93"/>
            <path id="Trazado_239" data-name="Trazado 239" d="M15.63,11.56l-.02-5.83h.21v5.83Z" fill="#004d93"/>
          </g>
          <path id="Trazado_240" data-name="Trazado 240" d="M10.27,5.85,9.12,11.49l1.42-.01,1.15-5.64Z"/>
          <path id="SVGID-11" data-name="SVGID" d="M10.27,5.85,9.12,11.49l1.42-.01,1.15-5.64Z" fill="#004d93"/>
          <g id="Grupo_121" data-name="Grupo 121" clip-path="url(#clip-path-7)">
            <path id="Trazado_241" data-name="Trazado 241" d="M9.31,5.84l.02,5.65H9.12V5.84Z" fill="#004d93"/>
            <path id="Trazado_242" data-name="Trazado 242" d="M9.63,5.84l.02,5.65H9.33L9.31,5.84Z" fill="#004d93"/>
            <path id="Trazado_243" data-name="Trazado 243" d="M9.94,5.84l.02,5.65H9.65L9.63,5.84Z" fill="#004d93"/>
            <path id="Trazado_244" data-name="Trazado 244" d="M10.26,5.84l.02,5.65H9.96L9.94,5.84Z" fill="#004d93"/>
            <path id="Trazado_245" data-name="Trazado 245" d="M10.57,5.84l.02,5.65h-.31l-.02-5.65Z" fill="#004d93"/>
            <path id="Trazado_246" data-name="Trazado 246" d="M10.88,5.84l.03,5.65h-.32l-.02-5.65Z" fill="#004d93"/>
            <path id="Trazado_247" data-name="Trazado 247" d="M11.2,5.84l.02,5.65h-.31l-.03-5.65Z" fill="#004d93"/>
            <path id="Trazado_248" data-name="Trazado 248" d="M11.52,5.84l.02,5.65h-.32L11.2,5.84Z" fill="#004d93"/>
            <path id="Trazado_249" data-name="Trazado 249" d="M11.54,11.49l-.02-5.65h.17v5.65Z" fill="#004d93"/>
          </g>
          <path id="Trazado_250" data-name="Trazado 250" d="M17.32,4.33a.66.66,0,0,0-.61.41L14.6,10h1.49l.3-.85h1.82l.18.84H19.7L18.53,4.32ZM16.79,8l.74-2.12L18,8Z" transform="translate(0.9 1.49)"/>
          <path id="SVGID-12" data-name="SVGID" d="M17.32,4.33a.66.66,0,0,0-.61.41L14.6,10h1.49l.3-.85h1.82l.18.84H19.7L18.53,4.32ZM16.79,8l.74-2.12L18,8Z" transform="translate(0.9 1.49)" fill="#004d93"/>
          <g id="Grupo_122" data-name="Grupo 122" clip-path="url(#clip-path-8)">
            <path id="Trazado_251" data-name="Trazado 251" d="M17.7,7.34v0Z" fill="#004d93"/>
            <path id="Trazado_252" data-name="Trazado 252" d="M18.01,7.34,17.7,8.96V7.34Z" fill="#004d93"/>
            <path id="Trazado_253" data-name="Trazado 253" d="M18.33,7.34l-.42,2.12H17.7v-.5l.31-1.62Z" fill="#004d93"/>
            <path id="Trazado_254" data-name="Trazado 254" d="M18.64,7.34l-.41,2.12h-.32l.42-2.12Z" fill="#004d93"/>
            <path id="Trazado_255" data-name="Trazado 255" d="M18.88,7.76l-.34,1.7h-.31l.41-2.12h.24Z" fill="#004d93"/>
            <path id="Trazado_256" data-name="Trazado 256" d="M18.88,9.37l-.02.09h-.32l.34-1.7Z" fill="#004d93"/>
            <path id="Trazado_257" data-name="Trazado 257" d="M18.86,9.46l.02-.09v.09Z" fill="#004d93"/>
            <path id="Trazado_258" data-name="Trazado 258" d="M15.79,5.82,15.5,7.31V5.82Z" fill="#004d93"/>
            <path id="Trazado_259" data-name="Trazado 259" d="M16.11,5.82,15.5,8.91V7.31l.29-1.49Z" fill="#004d93"/>
            <path id="Trazado_260" data-name="Trazado 260" d="M16.42,5.82l-.92,4.7V8.91l.61-3.09Z" fill="#004d93"/>
            <path id="Trazado_261" data-name="Trazado 261" d="M16.74,5.82l-1.11,5.64H15.5v-.94l.92-4.7Z" fill="#004d93"/>
            <path id="Trazado_262" data-name="Trazado 262" d="M17.05,5.82l-1.1,5.64h-.32l1.11-5.64Z" fill="#004d93"/>
            <path id="Trazado_263" data-name="Trazado 263" d="M17.37,5.82l-1.11,5.64h-.31l1.1-5.64Z" fill="#004d93"/>
            <path id="Trazado_264" data-name="Trazado 264" d="M17.68,5.82l-1.1,5.64h-.32l1.11-5.64Z" fill="#004d93"/>
            <path id="Trazado_265" data-name="Trazado 265" d="M18,5.82l-1.11,5.64h-.31l1.1-5.64Z" fill="#004d93"/>
            <path id="Trazado_266" data-name="Trazado 266" d="M18.31,5.82,17.2,11.46h-.31L18,5.82Z" fill="#004d93"/>
            <path id="Trazado_267" data-name="Trazado 267" d="M18.63,5.82l-1.11,5.64H17.2l1.11-5.64Z" fill="#004d93"/>
            <path id="Trazado_268" data-name="Trazado 268" d="M18.94,5.82l-1.1,5.64h-.32l1.11-5.64Z" fill="#004d93"/>
            <path id="Trazado_269" data-name="Trazado 269" d="M19.26,5.82l-1.11,5.64h-.31l1.1-5.64Z" fill="#004d93"/>
            <path id="Trazado_270" data-name="Trazado 270" d="M19.57,5.82l-1.11,5.64h-.31l1.11-5.64Z" fill="#004d93"/>
            <path id="Trazado_271" data-name="Trazado 271" d="M19.89,5.82l-1.11,5.64h-.32l1.11-5.64Z" fill="#004d93"/>
            <path id="Trazado_272" data-name="Trazado 272" d="M18.78,11.46l1.11-5.64h.72v5.64Z" fill="#004d93"/>
          </g>
        </g>
      </g>
    </g>
  </g>
</svg>
